<svg width="226" height="57" viewBox="0 0 226 57" fill="none" xmlns="http://www.w3.org/2000/svg">
<rect width="58" height="57" fill="#1C1C1C"/>
<path d="M88.45 29.5H87.16C87.1 28.52 86.95 27.71 86.71 27.07C86.49 26.41 86.17 25.89 85.75 25.51C85.33 25.11 84.82 24.84 84.22 24.7C83.62 24.54 82.92 24.46 82.12 24.46C81.34 24.46 80.71 24.48 80.23 24.52C79.77 24.54 79.41 24.59 79.15 24.67C78.91 24.73 78.75 24.82 78.67 24.94C78.59 25.06 78.55 25.21 78.55 25.39V41.11C78.55 41.75 78.59 42.3 78.67 42.76C78.77 43.22 78.96 43.6 79.24 43.9C79.52 44.18 79.93 44.4 80.47 44.56C81.01 44.7 81.72 44.78 82.6 44.8V46H70.03V44.8C70.93 44.78 71.65 44.7 72.19 44.56C72.73 44.4 73.14 44.18 73.42 43.9C73.72 43.6 73.91 43.22 73.99 42.76C74.09 42.3 74.14 41.75 74.14 41.11V25.39C74.14 25.21 74.1 25.06 74.02 24.94C73.96 24.82 73.82 24.73 73.6 24.67C73.38 24.59 73.06 24.54 72.64 24.52C72.24 24.48 71.71 24.46 71.05 24.46C70.33 24.46 69.64 24.5 68.98 24.58C68.32 24.64 67.74 24.84 67.24 25.18C66.74 25.5 66.33 26 66.01 26.68C65.71 27.34 65.55 28.28 65.53 29.5H64.36L64.66 22.9H88.15L88.45 29.5ZM96.2022 41.08C96.2022 41.88 96.2322 42.52 96.2922 43C96.3522 43.48 96.4722 43.85 96.6522 44.11C96.8322 44.37 97.0922 44.55 97.4322 44.65C97.7722 44.73 98.2322 44.78 98.8122 44.8V46H89.3622V44.8C89.9222 44.78 90.3722 44.72 90.7122 44.62C91.0722 44.5 91.3422 44.32 91.5222 44.08C91.7222 43.82 91.8522 43.47 91.9122 43.03C91.9922 42.57 92.0322 41.99 92.0322 41.29V37.6C92.0322 36.44 92.0122 35.49 91.9722 34.75C91.9322 33.99 91.8822 33.47 91.8222 33.19C91.7222 32.69 91.4922 32.36 91.1322 32.2C90.7922 32.04 90.1622 31.96 89.2422 31.96V30.94L96.2022 29.8V41.08ZM91.7922 23.44C91.7922 22.78 92.0122 22.23 92.4522 21.79C92.9122 21.33 93.4622 21.1 94.1022 21.1C94.7622 21.1 95.3122 21.33 95.7522 21.79C96.2122 22.23 96.4422 22.78 96.4422 23.44C96.4422 24.08 96.2122 24.63 95.7522 25.09C95.3122 25.53 94.7622 25.75 94.1022 25.75C93.4622 25.75 92.9122 25.53 92.4522 25.09C92.0122 24.63 91.7922 24.08 91.7922 23.44ZM109.652 37.45C107.972 38.21 106.702 38.92 105.842 39.58C105.002 40.22 104.582 40.89 104.582 41.59C104.582 42.17 104.742 42.63 105.062 42.97C105.382 43.31 105.782 43.48 106.262 43.48C106.742 43.48 107.192 43.4 107.612 43.24C108.032 43.06 108.392 42.83 108.692 42.55C108.992 42.27 109.222 41.94 109.382 41.56C109.562 41.16 109.652 40.74 109.652 40.3V37.45ZM109.652 35.86V34.6C109.652 33.44 109.442 32.6 109.022 32.08C108.622 31.54 107.992 31.27 107.132 31.27C106.552 31.27 106.112 31.43 105.812 31.75C105.512 32.05 105.232 32.56 104.972 33.28C104.792 33.78 104.532 34.17 104.192 34.45C103.872 34.73 103.422 34.87 102.842 34.87C102.282 34.87 101.852 34.7 101.552 34.36C101.252 34.02 101.102 33.54 101.102 32.92C101.102 31.96 101.622 31.2 102.662 30.64C103.722 30.08 105.312 29.8 107.432 29.8C109.672 29.8 111.272 30.21 112.232 31.03C113.192 31.83 113.672 33.18 113.672 35.08V41.65C113.672 43.35 114.012 44.2 114.692 44.2C115.072 44.2 115.422 44.07 115.742 43.81L116.192 44.68C115.912 45.18 115.472 45.58 114.872 45.88C114.292 46.16 113.632 46.3 112.892 46.3C111.972 46.3 111.272 46.02 110.792 45.46C110.312 44.9 110.072 44.11 110.072 43.09H109.922C109.342 44.13 108.592 44.92 107.672 45.46C106.752 46 105.702 46.27 104.522 46.27C103.262 46.27 102.252 45.92 101.492 45.22C100.732 44.5 100.352 43.57 100.352 42.43C100.352 41.55 100.742 40.73 101.522 39.97C102.302 39.19 103.602 38.43 105.422 37.69L109.652 35.86ZM123.399 42.76C123.939 42.8 124.409 42.84 124.809 42.88C125.229 42.92 125.619 42.97 125.979 43.03C126.359 43.07 126.729 43.12 127.089 43.18C127.469 43.22 127.869 43.27 128.289 43.33C129.849 43.55 131.069 44.14 131.949 45.1C132.849 46.04 133.299 47.21 133.299 48.61C133.299 50.31 132.599 51.6 131.199 52.48C129.799 53.36 127.739 53.8 125.019 53.8C122.519 53.8 120.589 53.43 119.229 52.69C117.889 51.97 117.219 50.94 117.219 49.6C117.219 48.56 117.489 47.77 118.029 47.23C118.569 46.71 119.249 46.45 120.069 46.45C120.589 46.45 121.089 46.55 121.569 46.75C122.069 46.97 122.489 47.28 122.829 47.68C122.309 47.78 121.879 48.01 121.539 48.37C121.219 48.75 121.059 49.19 121.059 49.69C121.059 50.49 121.409 51.1 122.109 51.52C122.829 51.96 123.879 52.18 125.259 52.18C128.259 52.18 129.759 51.23 129.759 49.33C129.759 48.65 129.529 48.06 129.069 47.56C128.629 47.08 127.989 46.79 127.149 46.69L121.899 45.97C119.679 45.67 118.569 44.68 118.569 43C118.569 42.18 118.829 41.51 119.349 40.99C119.889 40.47 120.649 40.11 121.629 39.91V39.79C121.169 39.61 120.749 39.36 120.369 39.04C120.009 38.72 119.689 38.35 119.409 37.93C119.129 37.51 118.909 37.06 118.749 36.58C118.609 36.08 118.539 35.57 118.539 35.05C118.539 34.31 118.689 33.62 118.989 32.98C119.309 32.32 119.739 31.76 120.279 31.3C120.839 30.84 121.489 30.48 122.229 30.22C122.989 29.94 123.809 29.8 124.689 29.8C125.549 29.8 126.389 29.93 127.209 30.19C128.029 30.45 128.729 30.81 129.309 31.27C129.769 30.99 130.169 30.76 130.509 30.58C130.849 30.38 131.159 30.23 131.439 30.13C131.739 30.01 132.009 29.93 132.249 29.89C132.489 29.83 132.729 29.8 132.969 29.8C133.729 29.8 134.339 29.97 134.799 30.31C135.279 30.65 135.519 31.1 135.519 31.66C135.519 32.08 135.389 32.43 135.129 32.71C134.869 32.97 134.529 33.1 134.109 33.1C133.809 33.1 133.569 33.04 133.389 32.92C133.209 32.78 133.029 32.63 132.849 32.47C132.689 32.29 132.519 32.14 132.339 32.02C132.159 31.88 131.919 31.81 131.619 31.81C131.199 31.81 130.799 32.08 130.419 32.62C130.619 32.96 130.759 33.33 130.839 33.73C130.919 34.11 130.959 34.56 130.959 35.08C130.959 35.84 130.839 36.54 130.599 37.18C130.359 37.82 129.979 38.39 129.459 38.89C128.959 39.37 128.309 39.78 127.509 40.12C126.709 40.46 125.739 40.69 124.599 40.81C123.639 40.91 122.969 41.04 122.589 41.2C122.229 41.36 122.049 41.6 122.049 41.92C122.049 42.4 122.499 42.68 123.399 42.76ZM124.839 39.1C125.479 39.1 125.979 38.76 126.339 38.08C126.699 37.4 126.879 36.45 126.879 35.23C126.879 33.99 126.699 33.04 126.339 32.38C125.979 31.7 125.469 31.36 124.809 31.36C124.129 31.36 123.589 31.7 123.189 32.38C122.789 33.06 122.589 33.99 122.589 35.17C122.589 36.37 122.789 37.33 123.189 38.05C123.609 38.75 124.159 39.1 124.839 39.1ZM144.533 29.8C145.733 29.8 146.863 30.01 147.923 30.43C149.003 30.83 149.943 31.39 150.743 32.11C151.563 32.83 152.203 33.69 152.663 34.69C153.143 35.67 153.383 36.75 153.383 37.93C153.383 39.15 153.143 40.27 152.663 41.29C152.203 42.31 151.563 43.19 150.743 43.93C149.943 44.67 149.003 45.25 147.923 45.67C146.863 46.09 145.733 46.3 144.533 46.3C143.353 46.3 142.233 46.1 141.173 45.7C140.113 45.28 139.183 44.7 138.383 43.96C137.583 43.22 136.953 42.34 136.493 41.32C136.033 40.28 135.803 39.15 135.803 37.93C135.803 36.75 136.033 35.66 136.493 34.66C136.953 33.66 137.583 32.8 138.383 32.08C139.183 31.36 140.113 30.8 141.173 30.4C142.233 30 143.353 29.8 144.533 29.8ZM144.533 31.54C143.933 31.54 143.383 31.7 142.883 32.02C142.383 32.32 141.953 32.75 141.593 33.31C141.253 33.87 140.983 34.55 140.783 35.35C140.603 36.13 140.513 37 140.513 37.96C140.513 38.96 140.603 39.86 140.783 40.66C140.983 41.46 141.253 42.14 141.593 42.7C141.953 43.26 142.373 43.7 142.853 44.02C143.353 44.32 143.913 44.47 144.533 44.47C145.153 44.47 145.713 44.32 146.213 44.02C146.733 43.7 147.173 43.26 147.533 42.7C147.893 42.12 148.173 41.43 148.373 40.63C148.573 39.83 148.673 38.94 148.673 37.96C148.673 37 148.573 36.13 148.373 35.35C148.173 34.57 147.893 33.9 147.533 33.34C147.173 32.76 146.733 32.32 146.213 32.02C145.713 31.7 145.153 31.54 144.533 31.54ZM156.118 44.08C156.118 43.44 156.328 42.9 156.748 42.46C157.188 42 157.728 41.77 158.368 41.77C159.028 41.77 159.578 42 160.018 42.46C160.458 42.9 160.678 43.44 160.678 44.08C160.678 44.7 160.458 45.23 160.018 45.67C159.578 46.09 159.028 46.3 158.368 46.3C157.728 46.3 157.188 46.09 156.748 45.67C156.328 45.23 156.118 44.7 156.118 44.08Z" fill="black"/>
</svg>
